<svg width="16" height="15" viewBox="0 0 16 15" fill="none" xmlns="http://www.w3.org/2000/svg">
<path d="M11.373 0.997514C10.7353 0.930632 10.0943 0.898084 9.45304 0.900014C7.32701 0.900014 6.00574 2.23876 6.00574 4.39376V5.85689H4.21982C4.13599 5.85689 4.05559 5.88981 3.99631 5.94842C3.93703 6.00702 3.90373 6.08651 3.90373 6.16939V8.57564C3.90373 8.65852 3.93703 8.73801 3.99631 8.79661C4.05559 8.85522 4.13599 8.88814 4.21982 8.88814H6.00574V13.7131C6.00574 13.796 6.03905 13.8755 6.09832 13.9341C6.1576 13.9927 6.238 14.0256 6.32184 14.0256H8.83666C8.9205 14.0256 9.0009 13.9927 9.06017 13.9341C9.11945 13.8755 9.15275 13.796 9.15275 13.7131V8.88814H10.933C11.0097 8.88818 11.0839 8.86061 11.1416 8.81058C11.1993 8.76056 11.2366 8.69149 11.2465 8.61626L11.5607 6.21001C11.5666 6.16591 11.5629 6.12108 11.5498 6.07852C11.5367 6.03596 11.5146 5.99665 11.4849 5.96322C11.4552 5.9298 11.4186 5.90302 11.3776 5.88468C11.3367 5.86634 11.2922 5.85687 11.2472 5.85689H9.15275V4.63251C9.15275 4.02626 9.27603 3.77314 10.0429 3.77314H11.3319C11.4157 3.77314 11.4961 3.74022 11.5554 3.68161C11.6147 3.623 11.648 3.54352 11.648 3.46064V1.30751C11.648 1.23164 11.6201 1.15835 11.5695 1.10131C11.5189 1.04427 11.4491 1.00738 11.373 0.997514ZM11.0158 3.14751L10.0422 3.14814C8.67862 3.14814 8.52057 3.99564 8.52057 4.63251V6.17001C8.52057 6.25279 8.55379 6.33218 8.61293 6.39076C8.67207 6.44935 8.75231 6.48235 8.83603 6.48251H10.8881L10.6548 8.26376H8.83666C8.75283 8.26376 8.67243 8.29669 8.61315 8.35529C8.55387 8.4139 8.52057 8.49338 8.52057 8.57626V13.4H6.63793V8.57626C6.63793 8.49338 6.60463 8.4139 6.54535 8.35529C6.48607 8.29669 6.40567 8.26376 6.32184 8.26376H4.53655V6.48251H6.32184C6.40567 6.48251 6.48607 6.44959 6.54535 6.39099C6.60463 6.33238 6.63793 6.25289 6.63793 6.17001V4.39376C6.63793 2.59751 7.69051 1.52501 9.45304 1.52501C10.0909 1.52501 10.6668 1.55939 11.0158 1.58939V3.14751Z" fill="#842029"/>
</svg>
