<svg width="16" height="15" viewBox="0 0 16 15" fill="none" xmlns="http://www.w3.org/2000/svg">
<path d="M7.87356 4.80469C7.33435 4.80469 6.80725 4.96276 6.35891 5.25893C5.91058 5.55509 5.56114 5.97604 5.35479 6.46855C5.14845 6.96105 5.09446 7.50299 5.19965 8.02583C5.30485 8.54867 5.5645 9.02893 5.94578 9.40587C6.32706 9.78282 6.81284 10.0395 7.34169 10.1435C7.87053 10.2475 8.4187 10.1941 8.91687 9.99014C9.41503 9.78614 9.84082 9.44068 10.1404 8.99744C10.44 8.55419 10.5999 8.03308 10.5999 7.5C10.5989 6.78544 10.3114 6.10042 9.8003 5.59515C9.28923 5.08989 8.59633 4.80562 7.87356 4.80469ZM7.87356 9.49219C7.47501 9.49219 7.08542 9.37535 6.75404 9.15644C6.42266 8.93754 6.16438 8.6264 6.01186 8.26238C5.85934 7.89835 5.81944 7.49779 5.89719 7.11134C5.97494 6.7249 6.16686 6.36992 6.44868 6.09131C6.73049 5.8127 7.08955 5.62296 7.48044 5.54609C7.87132 5.46922 8.27649 5.50867 8.6447 5.65946C9.01291 5.81024 9.32762 6.06559 9.54904 6.3932C9.77046 6.72081 9.88865 7.10598 9.88865 7.5C9.88865 8.02836 9.67634 8.53508 9.29844 8.90869C8.92054 9.2823 8.40799 9.49219 7.87356 9.49219ZM10.7184 1.52344H5.02873C4.18021 1.52437 3.36672 1.85802 2.76672 2.4512C2.16673 3.04437 1.82924 3.84862 1.8283 4.6875V10.3125C1.82924 11.1514 2.16673 11.9556 2.76672 12.5488C3.36672 13.142 4.18021 13.4756 5.02873 13.4766H10.7184C11.5669 13.4756 12.3804 13.142 12.9804 12.5488C13.5804 11.9556 13.9179 11.1514 13.9188 10.3125V4.6875C13.9179 3.84862 13.5804 3.04437 12.9804 2.4512C12.3804 1.85802 11.5669 1.52437 10.7184 1.52344ZM13.2076 10.3125C13.2076 10.9652 12.9454 11.5911 12.4785 12.0526C12.0117 12.5142 11.3786 12.7734 10.7184 12.7734H5.02873C4.36855 12.7734 3.7354 12.5142 3.26858 12.0526C2.80176 11.5911 2.53951 10.9652 2.53951 10.3125V4.6875C2.53951 4.03482 2.80176 3.40887 3.26858 2.94735C3.7354 2.48584 4.36855 2.22656 5.02873 2.22656H10.7184C11.3786 2.22656 12.0117 2.48584 12.4785 2.94735C12.9454 3.40887 13.2076 4.03482 13.2076 4.6875V10.3125ZM11.5481 4.45312C11.5481 4.56901 11.5134 4.6823 11.4482 4.77865C11.3831 4.87501 11.2906 4.95011 11.1823 4.99446C11.074 5.03881 10.9548 5.05041 10.8398 5.0278C10.7249 5.0052 10.6193 4.94939 10.5364 4.86745C10.4535 4.7855 10.397 4.6811 10.3742 4.56744C10.3513 4.45378 10.363 4.33596 10.4079 4.2289C10.4528 4.12183 10.5287 4.03032 10.6262 3.96594C10.7236 3.90155 10.8382 3.86719 10.9555 3.86719C11.1126 3.86719 11.2634 3.92892 11.3745 4.0388C11.4857 4.14869 11.5481 4.29772 11.5481 4.45312Z" fill="#842029"/>
</svg>
