<svg width="16" height="15" viewBox="0 0 16 15" fill="none" xmlns="http://www.w3.org/2000/svg">
<path d="M14.8289 6.31406L10.0875 1.62656C10.0378 1.57745 9.97443 1.54402 9.90549 1.53048C9.83655 1.51694 9.7651 1.5239 9.70016 1.55049C9.63522 1.57707 9.57971 1.62208 9.54063 1.67984C9.50155 1.7376 9.48066 1.80551 9.4806 1.875V4.34765C6.25172 4.558 2.34542 7.57031 1.89854 11.4176C1.88403 11.5401 1.90899 11.664 1.96987 11.7717C2.03075 11.8793 2.12444 11.9652 2.2376 12.0172C2.35076 12.0691 2.47761 12.0844 2.60009 12.0609C2.72257 12.0374 2.83442 11.9763 2.91972 11.8863C3.58707 11.1826 5.98383 8.9414 9.4806 8.79668V11.25C9.48066 11.3195 9.50155 11.3874 9.54063 11.4452C9.57971 11.5029 9.63522 11.5479 9.70016 11.5745C9.7651 11.6011 9.83655 11.6081 9.90549 11.5945C9.97443 11.581 10.0378 11.5475 10.0875 11.4984L14.8289 6.81093C14.8955 6.74502 14.9329 6.65566 14.9329 6.5625C14.9329 6.46933 14.8955 6.37998 14.8289 6.31406ZM10.1918 10.4016V8.4375C10.1918 8.34426 10.1543 8.25483 10.0877 8.1889C10.021 8.12297 9.93052 8.08593 9.8362 8.08593C8.19272 8.08593 6.59073 8.51074 5.07586 9.34863C4.19291 9.83899 3.3796 10.4429 2.65716 11.1445C2.93572 9.58828 3.85199 8.09765 5.26492 6.90996C6.66363 5.73867 8.37171 5.03906 9.8362 5.03906C9.93052 5.03906 10.021 5.00202 10.0877 4.93609C10.1543 4.87016 10.1918 4.78074 10.1918 4.6875V2.72402L14.0744 6.5625L10.1918 10.4016Z" fill="#842029"/>
</svg>
